# xmcd
#
# Track frame offsets:
#	150
#	11200
#	23064
#	37341
#	47653
#	57208
#	71810
#	82964
#	94656
#	107171
#	118395
#	129835
#	139097
#	149309
#
# Disc length: 2149 seconds
#
# Revision: 0
# Processed by: cddbd v1.4PL0 Copyright (c) Steve Scherf et al.
# Submitted via: EasyCDDAExtractor 4.5.0.2
#
DISCID=c808630e
DTITLE=George Jones - Tender Years
DYEAR=1900
DGENRE=Country
TTITLE0=Tender Years
TTITLE1=White Lightning
TTITLE2=Where Grass Won't Grow
TTITLE3=Walk Through This World With Me
TTITLE4=The Race Is On
TTITLE5=A Good Year For The Roses
TTITLE6=Say It's Not You
TTITLE7=Accidentally On Purpose
TTITLE8=If My Heart Had Windows
TTITLE9=I'll Share My World With You
TTITLE10=I'm Wasting Good Paper
TTITLE11=Old Brush Arbors
TTITLE12=Developing My Pictures
TTITLE13=My Favourite Lies
EXTD=
EXTT0=
EXTT1=
EXTT2=
EXTT3=
EXTT4=
EXTT5=
EXTT6=
EXTT7=
EXTT8=
EXTT9=
EXTT10=
EXTT11=
EXTT12=
EXTT13=
PLAYORDER=
